# xmcd
#
# Track frame offsets: 
#        150
#        12695
#        28785
#        46682
#        63366
#        76858
#        93743
#        109103
#        127509
#        144604
#        164753
#        180598
#        193338
#        204645
#        221625
#        239725
#
# Disc length: 3435 seconds
#
# Revision: 1
# Processed by: cddbd v1.5.2PL0 Copyright (c) Steve Scherf et al.
# Submitted via: ExactAudioCopyFreeDBPlugin 1.0
#
DISCID=ea0d6910
DTITLE=Sharon Jones - Miss Sharon Jones (Original Motion Picture Sound
DTITLE=track)
DYEAR=2016
DGENRE=Soul
TTITLE0=Tell Me
TTITLE1=Retreat!
TTITLE2=Genuine Pt. 1
TTITLE3=Longer and Stronger
TTITLE4=If You Call
TTITLE5=100 Days, 100 Nights
TTITLE6=People Don't Get What They Deserve
TTITLE7=Humble Me
TTITLE8=I'll Still Be True
TTITLE9=Let Them Knock
TTITLE10=Stranger to My Happiness
TTITLE11=Keep on Looking
TTITLE12=Mama Don't Like My Man
TTITLE13=I Learned the Hard Way
TTITLE14=Slow Down Love
TTITLE15=I'm Still Here
EXTD=
EXTT0=
EXTT1=
EXTT2=
EXTT3=
EXTT4=
EXTT5=
EXTT6=
EXTT7=
EXTT8=
EXTT9=
EXTT10=
EXTT11=
EXTT12=
EXTT13=
EXTT14=
EXTT15=
PLAYORDER=
